<?xml version="1.0" encoding="UTF-8" standalone="no"?>
<svg
   xmlns:dc="http://purl.org/dc/elements/1.1/"
   xmlns:cc="http://creativecommons.org/ns#"
   xmlns:rdf="http://www.w3.org/1999/02/22-rdf-syntax-ns#"
   xmlns:svg="http://www.w3.org/2000/svg"
   xmlns="http://www.w3.org/2000/svg"
   xmlns:xlink="http://www.w3.org/1999/xlink"
   xmlns:sodipodi="http://sodipodi.sourceforge.net/DTD/sodipodi-0.dtd"
   xmlns:inkscape="http://www.inkscape.org/namespaces/inkscape"
   enable-background="new 0 0 1920 1000"
   viewBox="0 0 1920 1000"
   id="svg2"
   version="1.1"
   inkscape:version="0.92.4 (5da689c313, 2019-01-14)"
   sodipodi:docname="hero-area.svg">
  <metadata
     id="metadata25">
    <rdf:RDF>
      <cc:Work
         rdf:about="">
        <dc:format>image/svg+xml</dc:format>
        <dc:type
           rdf:resource="http://purl.org/dc/dcmitype/StillImage" />
      </cc:Work>
    </rdf:RDF>
  </metadata>
  <defs
     id="defs23" />
  <sodipodi:namedview
     pagecolor="#ffffff"
     bordercolor="#666666"
     borderopacity="1"
     objecttolerance="10"
     gridtolerance="10"
     guidetolerance="10"
     inkscape:pageopacity="0"
     inkscape:pageshadow="2"
     inkscape:window-width="3000"
     inkscape:window-height="1875"
     id="namedview21"
     showgrid="false"
     inkscape:zoom="0.62916666"
     inkscape:cx="1226.7856"
     inkscape:cy="50.141597"
     inkscape:window-x="-4"
     inkscape:window-y="-4"
     inkscape:window-maximized="1"
     inkscape:current-layer="svg2" />
  <clipPath
     id="a">
    <path
       d="m-82.2 543.8h2002.3v472.9h-2002.3z"
       id="path5" />
  </clipPath>
  <linearGradient
     id="b"
     gradientUnits="userSpaceOnUse"
     x1="644.93927"
     x2="1979.1835"
     y1="837.58154"
     y2="708.83978"
     xlink:href="#c">
    <stop
       offset="0"
       stop-color="#f02b81"
       id="stop8"
       style="stop-color:#ed03ff;stop-opacity:1" />
    <stop
       offset="1"
       stop-color="#f08a5b"
       id="stop10"
       style="stop-color:#001ef0;stop-opacity:1" />
  </linearGradient>
  <linearGradient
     id="c"
     gradientUnits="userSpaceOnUse"
     x1="87.2861"
     x2="2035.2726"
     y1="895.3835"
     y2="895.3835">
    <stop
       offset="0"
       stop-color="#ff4c8e"
       id="stop13"
       style="stop-color:#c30ad3;stop-opacity:1" />
    <stop
       offset="1"
       stop-color="#ffab7f"
       id="stop15"
       style="stop-color:#603cc0;stop-opacity:1" />
  </linearGradient>
  <path
     clip-path="url(#a)"
     d="m570.2 870.9c129.2-102.3 299.6-137 464.1-145.7 164.6-8.7 330.3 5.4 494-13.8 126.6-14.8 250.8-49.6 366.6-102.6 16.8-7.7 37.2-15.6 52.8-5.6 17 10.9 16.7 35.5 14.3 55.6-8 68.4-19.7 144-73.3 187.2-32.6 26.2-75.2 35.6-116.3 43.5-284.4 54.4-575.4 73.9-864.6 57.9-116.1-6.6-235.8-19.9-337.6-76.5z"
     fill="url(#b)"
     id="path17"
     style="opacity:0.679;fill:url(#b);fill-opacity:1" />
  <path
     clip-path="url(#a)"
     d="m1245.5 845.7c212.2-21.9 411.9-126 625.1-129.2 37.4-.6 77.2 2.8 107.4 25 48.3 35.5 54.7 103.9 56.8 163.8 1.5 42.5 1.2 90-28.1 120.9-28.6 30.1-74.7 33.6-116.2 34.3-309.3 5.4-618.3-33.3-927.5-24.6-287.6 8.1-599.8 81.8-875.7.4 74.7-111.5 223.2-200.7 355.7-222.8s268-7.2 401.2 9.9c133.2 17 267.7 36.1 401.3 22.3z"
     fill="url(#c)"
     id="path19" />
</svg>
